<svg width="36" height="36" viewBox="0 0 36 36" fill="none" xmlns="http://www.w3.org/2000/svg">
<rect width="36" height="36" rx="4" fill="white"/>
<path d="M19.5044 23.6816C18.0961 23.5726 17.5048 22.8794 16.3988 22.2125C15.7909 25.3784 15.0502 28.4121 12.8514 30C12.1738 25.2133 13.8478 21.6216 14.6251 17.8055C13.2998 15.5871 14.7845 11.1206 17.5812 12.2232C21.0223 13.5767 14.6018 20.4728 18.9131 21.3344C23.4138 22.229 25.2506 13.5701 22.4605 10.7509C18.4249 6.68383 10.719 10.6584 11.6689 16.4817C11.8981 17.9045 13.3795 18.337 12.2602 20.3012C9.67933 19.7334 8.90874 17.7097 9.00839 15.0127C9.16782 10.599 12.9975 7.50582 16.8405 7.07667C21.7032 6.53858 26.267 8.8527 26.8948 13.3951C27.6022 18.5251 24.6992 24.081 19.5044 23.6816Z" fill="#3D6EFF"/>
</svg>
