<svg xmlns="http://www.w3.org/2000/svg" width="15" height="15" fill="#fff" viewBox="0 0 15 15"><path fill="currentColor" fill-rule="evenodd" d="M13.925 13.925c-.1.1-.264.1-.364 0l-3.42-3.421a5.442 5.442 0 0 1-3.675 1.427 5.465 5.465 0 1 1 5.466-5.466 5.44 5.44 0 0 1-1.428 3.675l3.42 3.421c.101.1.101.264 0 .364zm-2.514-7.46a4.945 4.945 0 1 0-9.89.001 4.945 4.945 0 0 0 9.89 0z" clip-rule="evenodd"/><path d="M13.56 13.925l-.353.354h.001l.353-.354zm-3.42-3.421l.354-.354-.338-.337-.352.321.336.37zm.364-.364l-.37-.336-.321.352.337.338.354-.354zm3.42 3.421l-.353.354.354-.354zm-.352.01a.242.242 0 0 1 .341 0l-.705.709a.758.758 0 0 0 1.07 0l-.706-.71zm.342 0l-3.42-3.42-.707.707 3.42 3.42.707-.707zm-4.11-3.437a4.942 4.942 0 0 1-3.338 1.297v1a5.943 5.943 0 0 0 4.01-1.557l-.672-.74zm-3.338 1.297A4.965 4.965 0 0 1 1.5 6.465h-1a5.965 5.965 0 0 0 5.966 5.966v-1zM1.5 6.465A4.965 4.965 0 0 1 6.466 1.5v-1A5.965 5.965 0 0 0 .5 6.465h1zM6.466 1.5a4.965 4.965 0 0 1 4.966 4.965h1A5.965 5.965 0 0 0 6.466.5v1zm4.966 4.965a4.94 4.94 0 0 1-1.298 3.339l.74.673a5.94 5.94 0 0 0 1.558-4.012h-1zm-1.282 4.029l3.421 3.42.707-.706-3.421-3.421-.707.707zm3.421 3.42a.243.243 0 0 1 0-.342l.707.707a.757.757 0 0 0 0-1.071l-.707.707zm-1.66-7.449a5.445 5.445 0 0 0-5.445-5.444v1a4.445 4.445 0 0 1 4.445 4.444h1zM6.466 1.021A5.445 5.445 0 0 0 1.02 6.465h1a4.445 4.445 0 0 1 4.445-4.444v-1zM1.02 6.465a5.446 5.446 0 0 0 5.445 5.446v-1A4.446 4.446 0 0 1 2.02 6.465h-1zm5.445 5.446a5.446 5.446 0 0 0 5.445-5.446h-1a4.446 4.446 0 0 1-4.445 4.446v1z"/></svg>