<svg width="36" height="36" viewBox="0 0 36 36" fill="none" xmlns="http://www.w3.org/2000/svg">
<rect width="36" height="36" rx="4" fill="white"/>
<path d="M32.0007 10.4862C31.0338 10.9077 30.0035 11.1874 28.9295 11.3231C30.0345 10.6674 30.878 9.63659 31.2746 8.39425C30.2442 9.00507 29.1067 9.43618 27.8946 9.67697C26.916 8.64111 25.522 8 24.0006 8C21.0497 8 18.6737 10.3812 18.6737 13.3C18.6737 13.72 18.7092 14.1238 18.7971 14.5085C14.3664 14.2934 10.4451 12.1823 7.81107 8.9662C7.35099 9.75925 7.08134 10.6674 7.08134 11.6447C7.08134 13.4797 8.03196 15.1067 9.44876 16.0481C8.59259 16.032 7.75216 15.7846 7.04071 15.3954C7.04071 15.4116 7.04071 15.4328 7.04071 15.4535C7.04071 18.0285 8.88814 20.1674 11.3114 20.6601C10.8777 20.7782 10.4045 20.8347 9.91392 20.8347C9.57267 20.8347 9.22837 20.8156 8.90489 20.7444C9.59552 22.8429 11.5552 24.3856 13.8855 24.4355C12.0721 25.846 9.76919 26.6956 7.27685 26.6956C6.83962 26.6956 6.42067 26.6764 6.00122 26.6229C8.36204 28.1358 11.1601 29 14.1775 29C23.9859 29 29.3484 20.9231 29.3484 13.9219C29.3484 13.6877 29.3403 13.4615 29.3291 13.2369C30.3869 12.4908 31.2761 11.5589 32.0007 10.4862Z" fill="#3D6EFF"/>
</svg>
